<?xml version="1.0" encoding="utf-8"?>
<!-- Generator: Adobe Illustrator 20.0.0, SVG Export Plug-In . SVG Version: 6.00 Build 0)  -->
<svg version="1.1" id="Слой_1" xmlns="http://www.w3.org/2000/svg" xmlns:xlink="http://www.w3.org/1999/xlink" x="0px" y="0px"
	 viewBox="0 0 136 132" style="enable-background:new 0 0 136 132;" xml:space="preserve">
<style type="text/css">
	.st0{fill:#FF9C00;}
</style>
<g>
	<path class="st0" d="M68,132c-37.5,0-68-29.6-68-66S30.5,0,68,0s68,29.6,68,66S105.5,132,68,132z M68,2C31.6,2,2,30.7,2,66
		c0,35.3,29.6,64,66,64s66-28.7,66-64C134,30.7,104.4,2,68,2z"/>
</g>
<g>
	<path class="st0" d="M63.1,77c0-1.8-0.6-3.3-1.9-4.5c-1.2-1.2-3.3-2.3-6.2-3.3c-3.9-1.2-6.9-2.8-8.9-4.8s-3-4.6-3-8
		c0-3.2,0.9-5.8,2.8-7.9c1.9-2,4.4-3.3,7.6-3.7v-6.5h4.6v6.5c3.3,0.5,5.8,1.9,7.6,4.2c1.8,2.3,2.7,5.5,2.7,9.4h-5.7
		c0-2.7-0.6-4.8-1.8-6.4s-2.9-2.5-5.1-2.5c-2.3,0-4,0.6-5.2,1.8s-1.7,2.8-1.7,4.9c0,1.9,0.6,3.4,1.8,4.6s3.3,2.3,6.4,3.3
		c4,1.3,6.9,2.9,8.9,4.8c1.9,1.9,2.9,4.5,2.9,7.8c0,3.4-1,6-3,8s-4.8,3.2-8.3,3.5v5.6H53v-5.6c-3.4-0.4-6.1-1.6-8.3-3.7
		s-3.2-5.2-3.1-9.2l0.1-0.1h5.6c0,3,0.8,5.2,2.3,6.4s3.4,1.9,5.6,1.9c2.5,0,4.5-0.6,5.9-1.8S63.1,79.1,63.1,77z"/>
	<path class="st0" d="M75.3,84.3l6.6-0.8v-32l-6.7,0.1V48l12.5-2.7v38.1l6.6,0.8V88H75.3V84.3z"/>
</g>
</svg>
