<?xml version="1.0" encoding="utf-8"?>
<!-- Generator: Adobe Illustrator 20.0.0, SVG Export Plug-In . SVG Version: 6.00 Build 0)  -->
<svg version="1.1" id="Слой_1" xmlns="http://www.w3.org/2000/svg" xmlns:xlink="http://www.w3.org/1999/xlink" x="0px" y="0px"
	 viewBox="0 0 136 132" style="enable-background:new 0 0 136 132;" xml:space="preserve">
<style type="text/css">
	.st0{fill:#FF9C00;}
</style>
<g>
	<path class="st0" d="M68,132c-37.5,0-68-29.6-68-66S30.5,0,68,0s68,29.6,68,66S105.5,132,68,132z M68,2C31.6,2,2,30.7,2,66
		s29.6,64,66,64s66-28.7,66-64S104.4,2,68,2z"/>
</g>
<g>
	<path class="st0" d="M42,52.1c0-7.5,5.2-13.3,12.8-13.3c7.7,0,13,5.8,13,13.3c0,7.4-5.3,13-13,13C47.2,65.2,42,59.6,42,52.1z
		 M63,52.1c0-5.3-3.4-9.2-8.2-9.2c-4.7,0-8,3.9-8,9.2c0,5,3.3,9,8,9C59.6,61.2,63,57.2,63,52.1z M49.8,93l34.1-53.4h4.4L54.1,93
		H49.8z M69.9,80.9c0-7.5,5.2-13.3,12.8-13.3c7.6,0,12.9,5.8,12.9,13.3c0,7.4-5.3,13-12.9,13C75.1,94,69.9,88.4,69.9,80.9z
		 M90.8,80.9c0-5.3-3.4-9.2-8.2-9.2s-8.1,3.9-8.1,9.2c0,5,3.3,9,8.1,9S90.8,86,90.8,80.9z"/>
</g>
</svg>
